<svg width="288" height="293" viewBox="0 0 288 293" fill="none" xmlns="http://www.w3.org/2000/svg">
<path d="M0.419997 142.986C2.185 96.193 25.899 53.035 69.25 24.516C69.378 24.564 70.501 24.155 69.988 25.126C66.554 28.31 4.81599 101.24 61.644 158.806C61.644 158.806 91.502 187.51 114.655 160.274C114.655 160.274 137.502 130.697 114.366 85.861C114.366 85.861 108.51 71.221 87.411 62.14L104.403 43.392C104.403 43.392 118.762 49.553 129.881 66.263C129.881 66.263 130.474 48.67 116.997 29.923L143.342 0.0330048L169.422 29.642C169.422 29.642 157.429 46.633 156.546 66.544C156.546 66.544 164.737 53.067 182.322 43.393L199.008 62.141C199.008 62.141 182.963 67.428 172.214 85.67C162.972 102.572 155.857 138.72 172.63 160.893C172.63 160.893 191.402 187.511 224.422 159.322C224.422 159.322 285.134 104.923 218.196 26.274C218.196 26.274 214.538 23.041 218.645 24.798C248.231 46.338 283.657 74.744 287.315 145.635C285.871 231.601 228.303 292.969 144.241 292.969C61.934 292.968 -2.05 224.283 0.419997 142.986Z" fill="white"/>
</svg>
