<svg width="207" height="125" viewBox="0 0 207 125" fill="none" xmlns="http://www.w3.org/2000/svg">
<g clip-path="url(#clip0_3_4)">
<path d="M207.229 -1.10611H-1.81569V124.968H207.229V-1.10611Z" fill="black"/>
<path d="M44.3829 65.9335L46.9703 73.5225C48.3703 77.6262 49.6201 80.9082 49.7831 80.9082C49.7858 80.9082 49.7882 80.907 49.7902 80.9052C49.9693 80.7472 55.0338 66.0584 55.0338 66.0584H64.8493L53.0074 100.52H46.1851C46.1851 100.52 38.9033 79.5153 38.9331 79.4355L31.3319 100.255H24.5783L12.8856 65.9335L22.6534 65.9398C22.6534 65.9398 28.0041 81.0876 28.0754 81.0876C28.0757 81.0876 28.0757 81.0873 28.076 81.087L33.415 65.9332H44.3829M9.55086 63.5469L10.6255 66.7016L22.3183 101.023L22.8689 102.64H24.5786H31.3322H33.0029L33.5753 101.072L38.8531 86.6161C39.308 87.9377 39.7995 89.3621 40.291 90.7854C42.1082 96.0477 43.9292 101.3 43.9292 101.3L44.4855 102.905H46.1854H53.0077H54.7124L55.2657 101.294L67.1076 66.8328L68.193 63.6739H64.8493H55.0338H53.3309L52.7764 65.2823C51.8888 67.856 50.7109 71.2527 49.7037 74.1276C49.5518 73.6915 49.3936 73.2331 49.2301 72.7532L46.6429 65.1645L46.092 63.5487H44.3829H33.4153H31.7244L31.163 65.1419L28.0435 73.9961C27.013 71.1031 25.8183 67.7317 24.9051 65.1463L24.3435 63.5565L22.6552 63.5553L12.8874 63.549L9.55086 63.5469Z" fill="#FFE81F"/>
<path d="M195.553 65.7997L195.53 74.8325C195.53 74.8325 185.789 74.8 180.836 74.8C179.188 74.8 178.07 74.8039 178.017 74.8134C177.164 74.9687 176.62 76.7812 176.862 77.5767C176.981 77.9791 177.874 79.2936 178.841 80.5007C179.805 81.7082 181.39 83.6843 182.357 84.8909C184.839 87.9851 185.18 88.5958 185.409 90.3726C185.782 93.2581 184.416 96.3815 181.879 98.4411C179.337 100.507 179.448 100.521 160.576 100.521C160.302 100.521 160.028 100.521 159.747 100.521C148.269 100.518 142.199 100.423 141.315 100.227C139.746 99.8718 137.245 97.8331 130.634 91.4993C128.257 89.2232 126.066 87.2304 125.953 87.2298C125.95 87.2298 125.949 87.2316 125.949 87.2346L125.871 100.522L115.157 100.475L115.091 66.2033H128.602H138.984C146.186 66.4629 151.059 73.628 150.089 78.1973C149.868 79.2343 149.307 80.7371 148.841 81.5356C147.883 83.175 145.445 85.2793 143.466 86.1827C142.735 86.513 142.138 86.8975 142.138 87.0346C142.138 87.5443 144.544 89.9106 145.445 90.2864C146.215 90.608 148.456 90.6796 158.341 90.6796C159.499 90.6796 160.551 90.6802 161.506 90.6802C171.442 90.6802 170.942 90.6086 171.71 88.969C172.247 87.8274 171.839 87.1449 168.057 82.8915C163.267 78.1311 163.769 75.851 163.736 74.1669C163.668 72.149 165.259 65.8006 173.528 65.8006L195.553 65.7997ZM131.368 81.6328C135.955 81.6328 136.886 81.5615 137.862 81.138C141.157 79.7073 141.333 75.4811 138.173 73.6057C137.481 73.194 136.591 73.1261 131.619 73.0989L125.866 73.0688C125.913 73.1136 125.847 81.2864 125.847 81.2864C125.847 81.2864 127.289 81.6328 131.368 81.6328ZM197.946 63.4152H195.552H173.528C168.743 63.4152 165.913 65.3013 164.382 66.8837C161.891 69.4569 161.304 72.6972 161.349 74.2247C161.351 74.352 161.35 74.4826 161.348 74.6188C161.327 77.1013 161.693 79.9118 166.32 84.5282C167.235 85.5571 168.765 87.282 169.344 88.1392C168.079 88.2945 164.873 88.2945 161.506 88.2945H160.076L158.34 88.2939C152.4 88.2939 147.391 88.2769 146.365 88.0745C146.221 87.9809 146.02 87.82 145.798 87.628C147.85 86.3657 149.926 84.4092 150.903 82.7362C151.496 81.7189 152.149 79.9812 152.424 78.6921C153.033 75.8232 152.029 72.3624 149.738 69.4319C147.065 66.0128 143.177 63.9672 139.07 63.8194L139.027 63.8176H138.983H128.601H115.09H112.698L112.703 66.2071L112.769 100.478L112.773 102.847L115.146 102.858L125.859 102.905L128.243 102.916L128.257 100.535L128.304 92.5747C128.522 92.7821 128.748 92.9976 128.981 93.22C136.211 100.147 138.638 102.066 140.787 102.552C141.378 102.683 142.355 102.901 159.745 102.906H160.574C169.989 102.906 174.714 102.906 177.525 102.635C180.745 102.324 181.781 101.594 183.333 100.332L183.385 100.29C186.574 97.7007 188.256 93.7833 187.776 90.0665C187.463 87.6492 186.823 86.645 184.218 83.3994L183.444 82.4337C182.537 81.3013 181.441 79.9338 180.706 79.0134C180.113 78.273 179.648 77.6158 179.367 77.1854C179.736 77.1845 180.215 77.1839 180.835 77.1839C185.727 77.1839 195.424 77.2161 195.522 77.2167L197.911 77.2244L197.917 74.8375L197.94 65.8045L197.946 63.4152ZM128.25 79.1612C128.254 78.5589 128.257 77.8834 128.261 77.2068C128.264 76.6107 128.267 76.0134 128.268 75.4662L131.606 75.4834C133.525 75.4939 136.412 75.5097 136.975 75.6691C137.693 76.1046 138.094 76.7779 138.05 77.4754C138.027 77.8522 137.847 78.5449 136.91 78.9511C136.388 79.1776 135.555 79.2483 131.368 79.2483C130.04 79.2483 129.016 79.2098 128.25 79.1612Z" fill="#FFE81F"/>
<path d="M93.3831 65.6593L105.407 100.211L95.6095 100.255L93.983 95.0662L76.4648 94.9258L74.9189 100.121L65.2197 100.02L77.0915 65.6742L93.3831 65.6593ZM85.5041 70.7252C85.4794 70.8244 83.969 74.9633 82.4535 79.1019C80.9255 83.2748 79.3924 87.4477 79.3713 87.4802C79.3713 87.4805 79.371 87.4805 79.3713 87.4805C79.3713 87.4805 79.3713 87.4805 79.3713 87.4802C79.4118 87.4683 84.8374 87.4563 88.3148 87.4563C89.9422 87.4563 91.1425 87.459 91.1649 87.465C91.1652 87.4662 91.1652 87.4665 91.1652 87.4665C91.1652 87.4665 91.1652 87.4662 91.1652 87.4656C91.1652 87.4656 91.1652 87.4656 91.1649 87.465C91.104 87.3073 85.5217 70.9267 85.5041 70.7252C85.5044 70.724 85.5044 70.7234 85.5044 70.7234C85.5041 70.7234 85.5041 70.724 85.5041 70.7252ZM95.0804 63.2733L93.3814 63.2748L77.0897 63.29L75.3898 63.2915L74.835 64.8969L62.9632 99.2423L61.882 102.37L65.1952 102.404L74.8944 102.506L76.6949 102.525L77.2079 100.801L78.2423 97.3255L92.2252 97.4373L93.3318 100.969L93.8586 102.649L95.6214 102.641L105.419 102.597L108.76 102.581L107.663 99.4295L95.6387 64.8781L95.0804 63.2733ZM82.8077 85.0742C83.2599 83.8435 83.869 82.18 84.696 79.921C84.9553 79.2128 85.1926 78.5645 85.4101 77.9702C85.608 78.5532 85.8235 79.1875 86.0574 79.8772C86.2502 80.4453 87.0975 82.9383 87.8242 85.0718C85.6635 85.0718 84.037 85.0721 82.8077 85.0742Z" fill="#FFE81F"/>
<path d="M97.4359 24.4197V32.9443H80.3415V59.0158H70.1499V32.9234L50.1964 32.98C47.791 32.98 47.4687 34.8936 47.4687 35.6268C47.4687 36.527 48.0566 37.4271 51.2857 41.5106C53.3807 44.1633 55.3056 46.8101 55.5593 47.3884C56.9441 50.5717 55.1534 55.5314 51.8915 57.5463C49.5667 58.9809 49.9639 59.0161 32.6997 59.0161C31.8121 59.0161 30.8804 59.0161 29.8968 59.0161H11.3131V49.4393H40.5301L41.3925 48.8402C41.9745 48.4349 42.3117 47.8775 42.44 47.1145C42.6191 46.0176 42.5266 45.8745 38.9185 41.8149C34.6538 37.0161 34.2032 36.1398 34.424 33.0757C34.6747 29.5794 37.7964 24.5004 43.2518 24.5004L97.4359 24.4197ZM99.8234 22.0316L97.432 22.0352L43.2479 22.1156C40.1269 22.1156 37.2282 23.4623 35.0881 25.9076C33.353 27.8903 32.2141 30.5064 32.0422 32.9052C31.7518 36.9323 32.68 38.3875 37.1324 43.3976C38.4246 44.8513 39.6533 46.234 40.0633 46.8212C40.0567 46.8447 40.0508 46.8599 40.0472 46.8685C40.0427 46.8721 40.0358 46.8775 40.0263 46.884L39.781 47.0545H11.3131H8.92564V49.439V59.0158V61.4003H11.3131H29.8968H31.3701H32.6997C41.2117 61.4003 45.4131 61.3922 47.8883 61.211C50.7205 61.0039 51.6241 60.5186 52.9778 59.679L53.1468 59.5744C57.4031 56.9451 59.5966 50.684 57.7492 46.4375C57.1792 45.1386 53.5702 40.552 53.1605 40.0334C52.0276 38.6006 50.1576 36.2361 49.8616 35.5517C49.8687 35.4942 49.8828 35.4346 49.8977 35.3931C49.9469 35.3806 50.0412 35.3639 50.1964 35.3639L67.7624 35.3141V59.0152V61.3997H70.1499H80.3415H82.729V59.0152V35.3282H97.4359H99.8234V32.9437V24.4191V22.0316Z" fill="#FFE81F"/>
<path d="M125.208 24.6966L137.2 59.3374L127.42 59.2838L125.832 54.0945L108.392 54.017L106.834 59.0155H96.8752L108.735 24.6966H125.208ZM111.238 46.6402L123.116 46.6253C123.117 46.6253 123.117 46.6256 123.117 46.6256C123.157 46.6256 117.344 29.5762 117.306 29.5642C117.263 29.5627 111.104 46.6402 111.238 46.6402ZM126.909 22.3121H125.208H108.735H107.033L106.478 23.9186L94.6184 58.2379L93.5255 61.4003H96.8755H106.834H108.592L109.114 59.7243L110.147 56.4095L124.064 56.4712L125.138 59.9806L125.651 61.6584L127.408 61.6683L137.188 61.7219L140.559 61.7404L139.458 58.5583L127.467 23.9174L126.909 22.3121ZM114.555 44.2516C115.292 42.1571 116.317 39.2867 117.245 36.707C118.125 39.2835 119.098 42.1452 119.808 44.245L114.555 44.2516Z" fill="#FFE81F"/>
<path d="M158.886 24.6966C166.622 24.6966 171.991 24.8069 173.023 24.9857C175.411 25.4 177.569 26.6727 179.186 28.628C180.878 30.6727 181.266 31.6504 181.487 34.4522C181.804 38.4075 179.92 41.8203 176.205 44.0349C175.121 44.6817 174.008 45.3106 173.731 45.4358C173.304 45.6295 173.361 45.8143 174.125 46.7085C174.617 47.2838 175.471 48.1034 176.02 48.5297L177.022 49.3076L195.549 49.5729L195.731 59.0155H184.372C175.587 59.0155 172.775 58.935 171.951 58.6578C170.719 58.2405 167.753 55.7309 161.724 50.0021L157.42 45.9127L157.466 59.0155H146.411V24.6966H158.886ZM157.258 40.1273H163.128C168.84 40.1273 169.019 40.1094 169.834 39.4984C171.291 38.4075 171.806 37.2838 171.652 35.558C171.494 33.7785 170.807 32.8516 169.085 32.1064C168.115 31.6832 167.181 31.6146 162.603 31.6146H157.258V40.1273ZM158.886 22.3121H146.412H144.024V24.6966V59.0155V61.4H146.412H157.467H159.863L159.854 59.0072L159.828 51.4912L160.079 51.7294C167.535 58.8152 169.735 60.4247 171.186 60.9159C172.3 61.2912 174.165 61.4 184.373 61.4H195.732H198.165L198.119 58.9696L197.937 49.527L197.893 47.2218L195.585 47.1887L177.857 46.935L177.486 46.6468C177.367 46.5547 177.224 46.4331 177.071 46.2954C177.204 46.2167 177.326 46.1443 177.431 46.0817C181.909 43.4131 184.255 39.1049 183.868 34.2626C183.611 30.9961 183.027 29.5246 181.027 27.1091C179.062 24.7338 176.365 23.1455 173.433 22.6367C171.803 22.3544 163.62 22.3121 158.886 22.3121ZM159.645 33.9991H162.603C166.789 33.9991 167.618 34.0686 168.129 34.2915C169.099 34.7112 169.197 34.9148 169.273 35.769C169.35 36.6179 169.245 36.9595 168.401 37.5908C168.374 37.6113 168.353 37.6274 168.335 37.6402C167.778 37.7431 165.713 37.7431 163.128 37.7431H159.645L159.645 33.9991Z" fill="#FFE81F"/>
</g>
<defs>
<clipPath id="clip0_3_4">
<rect width="207" height="125" fill="white"/>
</clipPath>
</defs>
</svg>
