<svg width="32" height="32" viewBox="0 0 32 32" fill="none" xmlns="http://www.w3.org/2000/svg">
<path d="M32 0C30.752 0.925942 28.248 2.18786 26.776 2.55184C26.7328 2.56584 26.6976 2.58384 26.656 2.59784C25.3552 0.993937 23.5728 0 21.6 0C17.624 0 14.4 4.02975 14.4 8.99944C14.4 9.26142 14.3824 9.74339 14.4 9.99937C9.0352 9.99937 4.952 6.48759 2.024 1.99988C1.7056 2.99981 1.5664 4.57971 1.5664 6.06362C1.5664 8.86545 3.3184 11.6173 6.0464 13.3232C5.544 13.4852 4.9904 13.6012 4.4144 13.6012C3.4848 13.6012 2.5008 13.2952 1.6 12.3672C1.6 12.4012 1.6 12.4332 1.6 12.4692C1.6 16.385 4.9248 19.0508 7.8816 19.7928C7.2816 20.2347 6.072 20.2787 5.4816 20.2787C5.0656 20.2787 3.5936 20.0407 3.2 19.9488C4.0224 23.1586 6.9888 24.9624 9.816 25.0264C7.6048 27.1943 6.0704 27.9983 1.5424 27.9983H0C2.8608 30.2901 6.504 32 10.1552 32C22.0432 32 28.8 20.6747 28.8 9.99937C28.8 9.82738 28.7968 9.46741 28.792 9.10543C28.792 9.06943 28.8 9.03543 28.8 8.99944C28.8 8.94544 28.7872 8.89344 28.7872 8.83945C28.7824 8.56746 28.7776 8.31348 28.7728 8.18149C30.0368 7.04156 31.1328 5.61965 32 3.99975C30.84 4.64371 29.5952 5.07568 28.288 5.27167C29.6224 4.27173 31.5184 1.88788 32 0ZM25.6 9.99937C25.6 18.1589 20.8688 26.7963 12.0544 27.8843C13.248 26.8263 14.4 25.3244 14.4 25.3244C14.4 25.3244 9.6 20.0008 9.24 13.0452C10.896 13.6771 12.6208 13.9991 14.4 13.9991H17.6V8.99944C17.6 8.99744 17.6 8.99744 17.6 8.99744C17.6032 6.23761 19.392 4.00175 21.6 4.00175C23.8096 4.00175 25.6 6.23961 25.6 9.00144C25.6 9.00144 25.6 9.84138 25.6 9.99937Z" fill="#8D8D99"/>
</svg>
