<svg width="32" height="32" viewBox="0 0 32 32" fill="none" xmlns="http://www.w3.org/2000/svg">
<path d="M16 0C16 0 5.99288 -6.27041e-05 3.49688 0.835938C2.11928 1.29594 1.03675 2.65109 0.66875 4.37109C-5.01633e-05 7.49109 0 16 0 16C0 16 -5.01633e-05 24.5089 0.66875 27.6289C1.03675 29.3509 2.12088 30.7041 3.49688 31.1641C5.99288 32.0001 16 32 16 32C16 32 26.0071 32.0001 28.5031 31.1641C29.8791 30.7041 30.9633 29.3489 31.3313 27.6289C32 24.5089 32 16 32 16C32 16 32 7.49109 31.3313 4.37109C30.9633 2.65109 29.8791 1.29594 28.5031 0.835938C26.0071 -6.27041e-05 16 0 16 0ZM16 4C20.6112 4 26.3854 4.26722 27.675 4.69922C27.9454 4.78922 28.167 5.06625 28.2406 5.40625C28.6262 7.20225 28.8 12.684 28.8 16C28.8 19.316 28.6262 24.7957 28.2406 26.5938C28.1686 26.9317 27.947 27.2088 27.675 27.3008C26.387 27.7328 20.6112 28 16 28C11.3904 28 5.6162 27.7328 4.325 27.3008C4.0546 27.2108 3.83298 26.9338 3.75938 26.5938C3.37378 24.7978 3.2 19.316 3.2 16C3.2 12.684 3.37378 7.20234 3.75938 5.40234C3.83138 5.06634 4.053 4.78922 4.325 4.69922C5.613 4.26722 11.3888 4 16 4ZM12.8 9.07031V22.9297L22.4 16L12.8 9.07031Z" fill="#8D8D99"/>
</svg>
